<svg xmlns="http://www.w3.org/2000/svg" width="28" height="28" viewBox="0 0 28 28">
  <path fill="#EA6720" d="M14,28 C6.2680135,28 0,21.7319865 0,14 C0,6.2680135 6.2680135,-4.61852778e-14 14,-4.61852778e-14 C21.7319865,-4.61852778e-14 28,6.2680135 28,14 C28,21.7319865 21.7319865,28 14,28 Z M14,26 C20.627417,26 26,20.627417 26,14 C26,7.372583 20.627417,2 14,2 C7.372583,2 2,7.372583 2,14 C2,20.627417 7.372583,26 14,26 Z M13.0570976,7 L14.9429024,7 L14.9429024,7 C15.4951872,7 15.9429024,7.44771525 15.9429024,8 C15.9429024,8.01850069 15.942389,8.03699782 15.9413628,8.05547002 L15.5524739,15.05547 L15.5524739,15.05547 C15.5230341,15.5853866 15.0847472,16 14.5540135,16 L13.4459865,16 C12.9152528,16 12.4769659,15.5853866 12.4475261,15.05547 L12.0586372,8.05547002 C12.028002,7.50403559 12.4501931,7.03217489 13.0016276,7.00153965 C13.0200998,7.00051341 13.0385969,7 13.0570976,7 Z M13,17 L15,17 C15.5522847,17 16,17.4477153 16,18 L16,20 C16,20.5522847 15.5522847,21 15,21 L13,21 C12.4477153,21 12,20.5522847 12,20 L12,18 C12,17.4477153 12.4477153,17 13,17 Z"/>
</svg>
