<svg xmlns="http://www.w3.org/2000/svg" width="19" height="14" viewBox="0 0 19 14">
  <path fill="#333333" d="M3.41421356,8 L7.70710678,12.2928932 C8.09763107,12.6834175 8.09763107,13.3165825 7.70710678,13.7071068 C7.31658249,14.0976311 6.68341751,14.0976311 6.29289322,13.7071068 L0.292893219,7.70710678 C-0.0976310729,7.31658249 -0.0976310729,6.68341751 0.292893219,6.29289322 L6.29289322,0.292893219 C6.68341751,-0.0976310729 7.31658249,-0.0976310729 7.70710678,0.292893219 C8.09763107,0.683417511 8.09763107,1.31658249 7.70710678,1.70710678 L3.41421356,6 L18.0066023,6 C18.5552407,6 19,6.44386482 19,7 C19,7.55228475 18.5550537,8 18.0066023,8 L3.41421356,8 Z" transform="translate(0 .04)"/>
</svg>
