<svg xmlns="http://www.w3.org/2000/svg" width="18" height="18" viewBox="0 0 18 18">
  <path fill="#FFFFFF" d="M438,2409 C432.9133,2409.05982 428.941952,2413.14855 429,2418 C429.059332,2423.0867 433.14806,2427.05805 438,2427 C443.086211,2426.94067 447.057558,2422.85194 447,2418 C446.920615,2412.91379 442.851451,2408.92288 438,2409 Z M439,2412 C439.716282,2412 440,2412.60902 440,2413 C440,2414.18797 439.371766,2415 438,2415 C437.406003,2415 436.980425,2414.50376 437,2414 C436.980425,2412.96992 437.507331,2412 439,2412 Z M437,2424 C436.01083,2424 435.595668,2423.60622 436,2422 L437,2419 C436.768953,2418.19689 436.787004,2417.98964 437,2418 C436.480144,2417.98964 435.740072,2418.34197 435,2419 L435,2418 C436.407942,2416.78756 438.01444,2416 439,2416 C439.277978,2416 439.368231,2416.78756 439,2418 L438,2421 C438.194946,2421.86528 438.249097,2422.07254 438,2422 C438.555957,2422.07254 439.115523,2421.82383 440,2421 L440,2422 C438.646209,2423.39896 437.166065,2424 437,2424 Z" transform="translate(-429 -2409)"/>
</svg>
