<svg xmlns="http://www.w3.org/2000/svg" width="18" height="18" viewBox="0 0 18 18">
  <path fill="#ABCC75" fill-rule="evenodd" d="M11.3731024,0.510212195 L11.3897854,6.91360244 L13.9209805,4.36440732 C16.4038829,7.03411463 16.3602,11.2182366 13.7813707,13.8155049 C12.7257366,14.878822 11.4060293,15.5129927 10.0332,15.7213098 L10.1100293,18.0000659 C12.0360293,17.7660659 13.8992488,16.9071146 15.3752488,15.4207976 C18.8314683,11.9395537 18.8725171,6.32135854 15.5100293,2.76416341 L17.4204439,0.840139024 L11.3731024,0.510212195 Z M4.07893171,13.6352854 C1.59580976,10.9660171 1.63993171,6.78167561 4.21876098,4.18440732 C5.27439512,3.12152927 6.59410244,2.48691951 7.96627317,2.27860244 L7.88966341,6.58536585e-05 C5.96410244,0.233846341 4.10088293,1.09279756 2.62466341,2.57933415 C-0.831336585,6.06035854 -0.872385366,11.6783341 2.48966341,15.2355293 L0.57924878,17.1597732 L6.62659024,17.4899195 L6.60990732,11.0865293 L4.07893171,13.6352854 Z"/>
</svg>
