<svg xmlns="http://www.w3.org/2000/svg" width="18" height="18" viewBox="0 0 18 18">
  <path fill="#ABCC75" fill-rule="evenodd" d="M8,8 L6,8 C5.44771525,8 5,8.44771525 5,9 C5,9.55228475 5.44771525,10 6,10 L6,10 L8,10 L8,12 C8,12.5522847 8.44771525,13 9,13 C9.55228475,13 10,12.5522847 10,12 L10,12 L10,10 L12,10 C12.5522847,10 13,9.55228475 13,9 L13,9 C13,8.44771525 12.5522847,8 12,8 L12,8 L10,8 L10,6 C10,5.44771525 9.55228475,5 9,5 C8.44771525,5 8,5.44771525 8,6 L8,6 L8,8 Z M9,18 C4.02943725,18 0,13.9705627 0,9 C0,4.02943725 4.02943725,0 9,0 C13.9705627,0 18,4.02943725 18,9 C18,13.9705627 13.9705627,18 9,18 Z"/>
</svg>
