<svg xmlns="http://www.w3.org/2000/svg" width="18" height="18" viewBox="0 0 18 18">
  <path fill="#EA6720" fill-rule="evenodd" d="M69,2787 C64.0294373,2787 60,2782.97056 60,2778 C60,2773.02944 64.0294373,2769 69,2769 C73.9705627,2769 78,2773.02944 78,2778 C78,2782.97056 73.9705627,2787 69,2787 Z M64.5,2777 C64.2238576,2777 64,2777.22386 64,2777.5 L64,2778.5 C64,2778.77614 64.2238576,2779 64.5,2779 L73.5,2779 C73.7761424,2779 74,2778.77614 74,2778.5 L74,2777.5 C74,2777.22386 73.7761424,2777 73.5,2777 L64.5,2777 Z" transform="translate(-60 -2769)"/>
</svg>
