<svg xmlns="http://www.w3.org/2000/svg" width="28" height="28" viewBox="0 0 28 28">
  <path fill="#EA6720" d="M13.0003901,13 L11.5003901,13 C11.2242477,13 11.0003901,13.2238576 11.0003901,13.5 L11.0003901,14.5 C11.0003901,14.7761424 11.2242477,15 11.5003901,15 L13.0003901,15 L13.0003901,16.5 C13.0003901,16.7761424 13.2242477,17 13.5003901,17 L14.5003901,17 C14.7765325,17 15.0003901,16.7761424 15.0003901,16.5 L15.0003901,15 L16.5003901,15 C16.7765325,15 17.0003901,14.7761424 17.0003901,14.5 L17.0003901,13.5 C17.0003901,13.2238576 16.7765325,13 16.5003901,13 L15.0003901,13 L15.0003901,11.5 C15.0003901,11.2238576 14.7765325,11 14.5003901,11 L13.5003901,11 C13.2242477,11 13.0003901,11.2238576 13.0003901,11.5 L13.0003901,13 Z M14,28 C6.2680135,28 0,21.7319865 0,14 C0,6.2680135 6.2680135,0 14,0 C21.7319865,0 28,6.2680135 28,14 C28,21.7319865 21.7319865,28 14,28 Z M14,26 C20.627417,26 26,20.627417 26,14 C26,7.372583 20.627417,2 14,2 C7.372583,2 2,7.372583 2,14 C2,20.627417 7.372583,26 14,26 Z M14.0003901,22 C7.00039011,18.9766846 6.99355418,14.9788818 7.00039011,8 C14.0001951,7 7.00039011,8 14.0003901,7 C21.0003901,8 14.0003901,7 21.0003901,8 C20.9814082,14.9929199 21.0003901,19.0070801 14.0003901,22 Z"/>
</svg>
