<svg xmlns="http://www.w3.org/2000/svg" width="16" height="17" viewBox="0 0 16 17">
  <path fill="#333333" d="M68,2710.03963 C63.4785835,2710.09281 59.9484007,2713.72723 60,2718.03963 C60.0527411,2722.56114 63.6872643,2726.09123 68,2726.03963 C72.5214165,2725.98689 76.0515993,2722.35247 76,2718.03963 C75.9298689,2713.51856 72.3127357,2709.97108 68,2710.03963 Z M69,2713.03963 C69.7162815,2713.03963 70,2713.44565 70,2714.03963 C70,2714.49828 69.3717663,2715.03963 68,2715.03963 C67.4060027,2715.03963 66.980425,2714.70881 67,2714.03963 C66.980425,2713.68625 67.5073307,2713.03963 69,2713.03963 Z M67,2723.03963 C66.0108303,2723.03963 65.5956679,2722.69507 66,2721.03963 L67,2718.03963 C66.7689531,2717.96191 66.7870036,2717.78057 67,2718.03963 C66.4801444,2717.78057 65.7400722,2718.08886 65,2718.03963 L65,2718.03963 C66.4079422,2716.72875 68.0144404,2716.03963 69,2716.03963 C69.2779783,2716.03963 69.368231,2716.72875 69,2718.03963 L68,2721.03963 C68.1949458,2721.17176 68.2490975,2721.3531 68,2721.03963 C68.5559567,2721.3531 69.1155235,2721.13549 70,2721.03963 L70,2721.03963 C68.6462094,2722.51373 67.166065,2723.03963 67,2723.03963 Z" transform="translate(-60 -2710)"/>
</svg>
