<svg xmlns="http://www.w3.org/2000/svg" width="20" height="20" viewBox="0 0 20 20" xmlns:xlink="http://www.w3.org/1999/xlink">
  <defs>
    <path id="a" d="M9.94196099,-4.61229495e-15 C4.47838312,0.0351799928 0.0607017544,4.47493898 0.0607017544,9.94610526 C0.0607017544,15.4390877 4.51368421,19.8924211 10.0073684,19.8924211 C15.5,19.8924211 19.9529825,15.4390877 19.9529825,9.94610526 C19.9529825,4.47493898 15.5353011,0.0351799928 10.0727634,-7.10542736e-15 L9.94196099,-4.61229495e-15 Z"/>
  </defs>
  <g fill="none" fill-rule="evenodd">
    <mask id="b" fill="white">
      <use xlink:href="#a"/>
    </mask>
    <polygon fill="#000066" points="-4.912 19.892 24.926 19.892 24.926 0 -4.912 0" mask="url(#b)"/>
    <polygon fill="#FFFFFF" points="10.007 0 8.01 0 4.004 2.721 4.004 0 1.033 0 1.033 2.72 -2.971 0 -4.912 0 -4.912 1.171 -1.751 3.319 -4.912 3.319 -4.912 6.628 -1.753 6.628 -4.912 8.773 -4.912 9.947 -2.974 9.947 1.033 7.226 1.033 9.947 4.004 9.947 4.004 7.227 8.007 9.947 10.007 9.947 10.007 8.816 6.787 6.628 10.007 6.628 10.007 3.319 6.789 3.319 10.007 1.134" mask="url(#b)"/>
    <polygon fill="#CC0000" points=".065 3.319 -4.82 0 -4.912 0 -4.912 .702 -1.061 3.319" mask="url(#b)"/>
    <polygon fill="#CC0000" points="4.998 3.319 9.978 0 8.837 0 3.857 3.319" mask="url(#b)"/>
    <path fill="#CC0000" d="M3.43442105,3.94463158 L3.43442105,7.01754386e-05 L1.65757895,7.01754386e-05 L1.65757895,3.94463158 L-4.91224561,3.94463158 C-4.91224561,3.94463158 -4.90873684,5.90182456 -4.90382456,5.92392982 L1.65757895,5.92778947 L1.65757895,9.94638596 L3.43442105,9.94638596 L3.43442105,5.92778947 L3.43442105,5.92392982 L10.0070526,5.92392982 L10.0070526,3.94463158 L3.43442105,3.94463158 Z" mask="url(#b)"/>
    <polygon fill="#CC0000" points="4.867 6.554 9.861 9.947 10.007 9.947 10.007 9.281 5.993 6.554" mask="url(#b)"/>
    <polygon fill="#CC0000" points=".123 6.554 -4.912 9.909 -4.912 9.947 -3.826 9.947 1.265 6.554" mask="url(#b)"/>
    <polygon fill="#FFFFFF" points="17.397 2.399 17.764 3.483 18.952 3.483 17.989 4.187 18.345 5.261 17.398 4.623 16.45 5.261 16.806 4.187 15.851 3.483 17.039 3.483" mask="url(#b)"/>
    <polygon fill="#CC0000" points="17.017 4.12 16.395 3.661 17.168 3.661 17.399 2.964 17.635 3.661 18.403 3.661 17.778 4.119 18.01 4.82 17.398 4.407 16.785 4.82" mask="url(#b)"/>
    <polygon fill="#FFFFFF" points="12.803 7.071 13.16 8.126 14.316 8.126 13.379 8.811 13.726 9.857 12.804 9.235 11.881 9.857 12.228 8.811 11.298 8.126 12.454 8.126" mask="url(#b)"/>
    <polygon fill="#CC0000" points="12.434 8.746 11.828 8.3 12.581 8.3 12.805 7.621 13.036 8.3 13.783 8.3 13.173 8.745 13.399 9.427 12.804 9.026 12.208 9.427" mask="url(#b)"/>
    <polygon fill="#FFFFFF" points="17.429 14.172 17.835 15.369 19.147 15.369 18.083 16.148 18.477 17.335 17.43 16.63 16.382 17.335 16.776 16.148 15.72 15.369 17.034 15.369" mask="url(#b)"/>
    <polygon fill="#CC0000" points="16.986 16.081 16.264 15.548 17.163 15.548 17.432 14.736 17.707 15.548 18.6 15.548 17.872 16.081 18.141 16.894 17.43 16.414 16.717 16.894" mask="url(#b)"/>
  </g>
</svg>
