<svg xmlns="http://www.w3.org/2000/svg" width="16" height="14" viewBox="0 0 16 14">
  <path fill="#333333" fill-rule="evenodd" d="M60,2352 C60,2351.44772 60.4446309,2351 61.0008717,2351 L74.9991283,2351 C75.5518945,2351 76,2351.44386 76,2352 C76,2352.55228 75.5553691,2353 74.9991283,2353 L61.0008717,2353 C60.4481055,2353 60,2352.55614 60,2352 Z M60,2358 C60,2357.44772 60.455761,2357 61.0024733,2357 L70.9975267,2357 C71.5511774,2357 72,2357.44386 72,2358 C72,2358.55228 71.544239,2359 70.9975267,2359 L61.0024733,2359 C60.4488226,2359 60,2358.55614 60,2358 Z M60,2364 C60,2363.44772 60.4499488,2363 61.0068455,2363 L72.9931545,2363 C73.5492199,2363 74,2363.44386 74,2364 C74,2364.55228 73.5500512,2365 72.9931545,2365 L61.0068455,2365 C60.4507801,2365 60,2364.55614 60,2364 Z" transform="translate(-60 -2351)"/>
</svg>
