<svg xmlns="http://www.w3.org/2000/svg" width="14" height="14" viewBox="0 0 14 14">
  <path fill="#333333" fill-rule="evenodd" d="M65.7279221,2417.72792 L58.7213197,2417.72792 C58.1728684,2417.72792 57.7279221,2418.17564 57.7279221,2418.72792 C57.7279221,2419.28406 58.1726814,2419.72792 58.7213197,2419.72792 L65.7279221,2419.72792 L65.7279221,2426.69551 C65.7279221,2427.26489 66.1756373,2427.72792 66.7279221,2427.72792 C67.2840572,2427.72792 67.7279221,2427.2657 67.7279221,2426.69551 L67.7279221,2419.72792 L74.7345244,2419.72792 C75.2829758,2419.72792 75.7279221,2419.28021 75.7279221,2418.72792 C75.7279221,2418.17179 75.2831628,2417.72792 74.7345244,2417.72792 L67.7279221,2417.72792 L67.7279221,2410.76033 C67.7279221,2410.19096 67.2802068,2409.72792 66.7279221,2409.72792 C66.1717869,2409.72792 65.7279221,2410.19015 65.7279221,2410.76033 L65.7279221,2417.72792 Z" transform="rotate(45 2948.27 1140.302)"/>
</svg>
