<svg xmlns="http://www.w3.org/2000/svg" width="28" height="34" viewBox="0 0 28 34">
  <g fill="none" fill-rule="evenodd">
    <path stroke="#FFFFFF" stroke-width="2" d="M14.0126995,1.40334315 C11.7134577,3.91085517 9,8.78356268 9,11.0972222 C9,13.8012619 11.2349526,16 14,16 C16.7650474,16 19,13.8012619 19,11.0972222 C19,8.74699651 16.2858747,3.82348885 14.0126995,1.40334315 Z"/>
    <path fill="#FFFFFF" fill-opacity=".67" d="M14,14 C15.6568542,14 17,12.6008898 17,10.875 C17,9.14911016 15.0865625,5.99749756 14,5 C12.94625,6.01806641 11,9.14911016 11,10.875 C11,12.6008898 12.3431458,14 14,14 Z"/>
    <path stroke="#FFFFFF" stroke-width="2" d="M6.01269949,18.4033431 C3.71345774,20.9108552 1,25.7835627 1,28.0972222 C1,30.8012619 3.2349526,33 6,33 C8.7650474,33 11,30.8012619 11,28.0972222 C11,25.7469965 8.28587466,20.8234888 6.01269949,18.4033431 Z"/>
    <path fill="#FFFFFF" fill-opacity=".67" d="M6,31 C7.65685425,31 9,29.6008898 9,27.875 C9,26.1491102 7.0865625,22.9974976 6,22 C4.94625,23.0180664 3,26.1491102 3,27.875 C3,29.6008898 4.34314575,31 6,31 Z"/>
    <path stroke="#FFFFFF" stroke-width="2" d="M22.0126995,18.4033431 C19.7134577,20.9108552 17,25.7835627 17,28.0972222 C17,30.8012619 19.2349526,33 22,33 C24.7650474,33 27,30.8012619 27,28.0972222 C27,25.7469965 24.2858747,20.8234888 22.0126995,18.4033431 Z"/>
    <path fill="#FFFFFF" fill-opacity=".67" d="M22,31 C23.6568542,31 25,29.6008898 25,27.875 C25,26.1491102 23.0865625,22.9974976 22,22 C20.94625,23.0180664 19,26.1491102 19,27.875 C19,29.6008898 20.3431458,31 22,31 Z"/>
  </g>
</svg>
