<svg xmlns="http://www.w3.org/2000/svg" width="25" height="36" viewBox="0 0 25 36" xmlns:xlink="http://www.w3.org/1999/xlink">
  <defs>
    <path id="a" d="M12.5,33 C18.0224609,33.0063477 22,28.9460449 22,23.5 C22,18.0539551 16.5247803,8.50964355 12.5,4 C8.50463867,8.53686523 2.96655273,17.9101563 3,23.5 C3.03344727,29.0898438 6.97753906,32.9936523 12.5,33 Z"/>
  </defs>
  <g fill="none" fill-rule="evenodd">
    <path stroke="#FFFFFF" stroke-width="2" d="M12.5148572,1.37994584 C7.39533559,6.57862294 1,17.9887701 1,23.5 C1,29.8512746 6.14872538,35 12.5,35 C18.8512746,35 24,29.8512746 24,23.5 C24,17.9020381 17.5844988,6.34614549 12.5148572,1.37994584 Z"/>
    <mask id="b" fill="white">
      <use xlink:href="#a"/>
    </mask>
    <path fill="#FFFFFF" fill-opacity=".67" d="M2,13.8461538 C5.72326172,12.6979222 9.38992839,12.6979222 13,13.8461538 C15.9434049,15.0344387 19.2767383,15.0344387 23,13.8461538 L23,47 L2,47 L2,13.8461538 Z" mask="url(#b)"/>
  </g>
</svg>
