<svg xmlns="http://www.w3.org/2000/svg" width="14" height="40" viewBox="0 0 14 40" xmlns:xlink="http://www.w3.org/1999/xlink">
  <defs>
    <path id="a" d="M8,29.1260175 L8,4 C8,3.44771525 7.55228475,3 7,3 C6.44771525,3 6,3.44771525 6,4 L6,4 L6,29.1260175 C4.27477279,29.5700603 3,31.1361606 3,33 C3,35.209139 4.790861,37 7,37 C9.209139,37 11,35.209139 11,33 C11,31.1361606 9.72522721,29.5700603 8,29.1260175 Z"/>
  </defs>
  <g fill="none" fill-rule="evenodd">
    <path stroke="#FFFFFF" stroke-width="2" d="M10.4279022,28.0748747 L10,27.7764032 L10,4 C10,2.34314575 8.65685425,1 7,1 C5.34314575,1 4,2.34314575 4,4 L4,27.7764032 L3.57209784,28.0748747 C1.97199071,29.1909855 1,31.012821 1,33 C1,36.3137085 3.6862915,39 7,39 C10.3137085,39 13,36.3137085 13,33 C13,31.012821 12.0280093,29.1909855 10.4279022,28.0748747 Z"/>
    <mask id="b" fill="white">
      <use xlink:href="#a"/>
    </mask>
    <rect width="8" height="34" x="3" y="24" fill="#FFFFFF" fill-opacity=".67" mask="url(#b)"/>
  </g>
</svg>
