<svg xmlns="http://www.w3.org/2000/svg" width="174" height="17" viewBox="0 0 174 17">
  <g fill="#ABCC75" fill-rule="evenodd">
    <path d="M173.845088 15L173.845088 3 164.419203 3 168.853749 15 173.845088 15zM74 15L79.0690423 15 79.0690423 3 74 3 74 15zM165.233358 12.4664687L160.732492 12.4664687 159.744618 15 166.157387 15 165.233358 12.4664687zM164.529077 10.4050977L162.91413 5.69834199 162.87998 5.69834199 161.454096 10.4050977 164.529077 10.4050977zM151.637219 4.37589706C151.848552 4.86834942 151.954962 5.45780747 151.954962 6.14526107 151.954962 6.55753526 151.89755 6.96387033 151.783222 7.3647612 151.668399 7.76565207 151.499629 8.12892848 151.276417 8.4555803 151.05271 8.78173719 150.778025 9.05939124 150.451868 9.28854244 150.125217 9.51769364 149.744618 9.66666667 149.309082 9.73496659L152.835932 15 157.079931 15 161.638208 3 150.501856 3C150.583519 3.05642168 150.676565 3.10146003 150.752289 3.16481069 151.130413 3.47958426 151.424895 3.88344469 151.637219 4.37589706zM148.768127 7.80277159C148.979955 7.64785944 149.143281 7.44493937 149.25761 7.19302153 149.371938 6.94110369 149.429844 6.6149468 149.429844 6.213561 149.429844 5.81316506 149.369463 5.4894828 149.249196 5.24300916 149.128928 4.99703044 148.962633 4.80499876 148.750804 4.66790398 148.538976 4.53031428 148.290027 4.43578322 148.003959 4.38431081 147.717397 4.33283841 147.408067 4.3071022 147.076466 4.3071022L146.732492 4.3071022 146.732492 8.20613709 147.059144 8.20613709C147.402623 8.20613709 147.720366 8.17792626 148.012373 8.12051472 148.30438 8.06310319 148.556298 7.95718881 148.768127 7.80277159zM149.791636 15L146.767137 9.97550111 146.732492 9.97550111 146.732492 15 149.791636 15zM144.207374 3L135.795595 3C136.194506 3.27418956 136.566691 3.57856966 136.889879 3.93788666 137.450631 4.56198961 137.888641 5.2860678 138.20391 6.11061618 138.518683 6.93516456 138.67607 7.79980203 138.67607 8.70452858 138.67607 9.63202178 138.518683 10.5110121 138.20391 11.3414996 137.888641 12.1719871 137.450631 12.8960653 136.889879 13.5142292 136.328632 14.1328879 135.653056 14.6253403 134.862658 14.9915862 134.855729 14.9950507 134.848305 14.9970304 134.840881 15L144.207374 15 144.207374 3zM132.268745 13.0504826C132.807226 13.0504826 133.308092 12.9104182 133.771839 12.6297946 134.235585 12.349171 134.636476 11.9913388 134.974511 11.555803 135.312051 11.1207622 135.578322 10.6431576 135.773323 10.1215046 135.96783 9.60084138 136.06533 9.09403613 136.06533 8.60158377 136.06533 8.07498144 135.970799 7.55926751 135.781737 7.05543182 135.592675 6.55159614 135.332343 6.10220243 135.000247 5.70675575 134.668151 5.31180401 134.267261 4.99406088 133.797575 4.75352635 133.327889 4.51299183 132.818609 4.39272457 132.268745 4.39272457 131.719376 4.39272457 131.209602 4.51299183 130.739916 4.75352635 130.27023 4.99406088 129.869834 5.31180401 129.537738 5.70675575 129.205147 6.10220243 128.944816 6.55159614 128.756248 7.05543182 128.567186 7.55926751 128.472655 8.07498144 128.472655 8.60158377 128.472655 9.09403613 128.569661 9.60084138 128.764662 10.1215046 128.959169 10.6431576 129.225439 11.1207622 129.563474 11.555803 129.901015 11.9913388 130.301905 12.349171 130.765652 12.6297946 131.229399 12.9104182 131.730265 13.0504826 132.268745 13.0504826zM120.399406 3L120.399406 9.99282356C120.399406 10.783222 120.310319 11.5162089 120.133135 12.1917842 119.955457 12.8673596 119.674833 13.454343 119.291265 13.9522395 118.953229 14.3907449 118.513734 14.7302648 118.00297 15L129.688196 15C129.680772 14.9970304 129.673348 14.9950507 129.666419 14.9915862 128.88196 14.6253403 128.208859 14.1328879 127.648107 13.5142292 127.08686 12.8960653 126.648849 12.1719871 126.334076 11.3414996 126.018807 10.5110121 125.86142 9.63202178 125.86142 8.70452858 125.86142 7.79980203 126.018807 6.93516456 126.334076 6.11061618 126.648849 5.2860678 127.08686 4.56198961 127.648107 3.93788666 127.971294 3.57856966 128.341995 3.27418956 128.739421 3L120.399406 3zM117.873794 3L113.304628 3 113.304628 9.494927C113.304628 9.89581787 113.32195 10.32195 113.3561 10.7743133 113.390745 11.2271715 113.485276 11.6419203 113.639693 12.0200445 113.79411 12.3976738 114.023262 12.7129423 114.326652 12.9648602 114.630042 13.216778 115.05073 13.3424895 115.589211 13.3424895 116.127691 13.3424895 116.548379 13.216778 116.851769 12.9648602 117.15516 12.7129423 117.384311 12.3976738 117.539223 12.0200445 117.69364 11.6419203 117.788171 11.2271715 117.822321 10.7743133 117.856966 10.32195 117.873794 9.89581787 117.873794 9.494927L117.873794 3zM110.77951 3L101.273942 3 105.707993 15 113.175452 15C112.664687 14.7302648 112.225192 14.3907449 111.887652 13.9522395 111.503588 13.454343 111.222965 12.8673596 111.045781 12.1917842 110.868102 11.5162089 110.77951 10.783222 110.77951 9.99282356L110.77951 3zM99.7342242 5.69834199L98.3083395 10.4050977 101.383321 10.4050977 99.7683742 5.69834199 99.7342242 5.69834199zM102.087602 12.4664687L97.586736 12.4664687 96.5988617 15 103.011631 15 102.087602 12.4664687zM98.4924524 3L88.7918832 3 88.7918832 15 93.9341747 15 98.4924524 3zM81.5941599 7.34743875L86.2667657 7.34743875 86.2667657 3 81.5941599 3 81.5941599 7.34743875zM81.5941599 15L86.2667657 15 86.2667657 9.4088097 81.5941599 9.4088097 81.5941599 15zM3.12305618.905573034L0 .905573034 4.8668764 16.5 7.05689888 16.5 9.93653933 6.50233708 9.97716854 6.50233708 13.0189663 16.5 15.2089888 16.5 20.3804045.905573034 17.2573483.905573034 14.2561798 11.3289438 14.2155506 11.3289438 11.0518652.702786517 9.28791011.702786517 6.24575281 11.3289438 6.20548315 11.3289438 3.12305618.905573034zM24.1722247 6.92840449L24.1722247.905573034 21.191191.905573034 21.191191 16.1958202 24.1722247 16.1958202 24.1722247 9.3618427 29.6880899 9.3618427 29.6880899 16.1958202 32.6691236 16.1958202 32.6691236.905573034 29.6880899.905573034 29.6880899 6.92840449 24.1722247 6.92840449zM42.4636404 10.5379326L38.833618 10.5379326 40.5166742 4.9814382 40.5573034 4.9814382 42.4636404 10.5379326zM43.2949213 12.9713708L44.4713708 16.1958202 47.6548315 16.1958202 41.8552809.5 39.5433708.5 33.5813034 16.1958202 36.7248539 16.1958202 37.9818427 12.9713708 43.2949213 12.9713708zM51.5484045 3.33901124L51.9539775 3.33901124C52.3458876 3.33901124 52.7108315 3.36957303 53.0491685 3.43033708 53.3867865 3.49110112 53.6808989 3.6025618 53.9311461 3.7647191 54.1810337 3.92723596 54.3773483 4.15375281 54.5193708 4.44426966 54.6613933 4.73514607 54.7322247 5.11698876 54.7322247 5.58979775 54.7322247 6.06332584 54.6642697 6.44876404 54.5294382 6.74575281 54.3942472 7.04346067 54.2015281 7.2832809 53.9512809 7.46557303 53.7010337 7.64822472 53.4040449 7.77334831 53.059236 7.84094382 52.714427 7.90853933 52.3394157 7.94233708 51.9338427 7.94233708L51.5484045 7.94233708 51.5484045 3.33901124zM54.5902022 9.7472809C55.104 9.66602247 55.5534382 9.4905618 55.9388764 9.21982022 56.3239551 8.9494382 56.6486292 8.62152809 56.9121798 8.23644944 57.1757303 7.85101124 57.3749213 7.42206742 57.5104719 6.94853933 57.6453034 6.47573034 57.7132584 5.99537079 57.7132584 5.50889888 57.7132584 4.69775281 57.5881348 4.00166292 57.3378876 3.42026966 57.0876404 2.8388764 56.7399551 2.36247191 56.2937528 1.99033708 55.8475506 1.61892135 55.3100225 1.34494382 54.6815281 1.1691236 54.0526742.993662921 53.3598202.905573034 52.6029663.905573034L48.5673708.905573034 48.5673708 16.1958202 51.5484045 16.1958202 51.5484045 10.0309663 51.5890337 10.0309663 55.2999551 16.1958202 58.9094831 16.1958202 54.5902022 9.7472809zM67.7918202 3.50116854L67.7918202.905573034 59.8831461.905573034 59.8831461 16.1958202 67.7918202 16.1958202 67.7918202 13.6002247 62.8638202 13.6002247 62.8638202 9.46323596 67.6091685 9.46323596 67.6091685 6.86764045 62.8638202 6.86764045 62.8638202 3.50116854 67.7918202 3.50116854 67.7918202 3.50116854z"/>
  </g>
</svg>
