<svg xmlns="http://www.w3.org/2000/svg" width="117" height="60" viewBox="0 0 117 60">
  <g fill="#ABCC75" fill-rule="evenodd">
    <path d="M1.81671429,29.1557143 C1.81671429,29.1557143 -0.474428571,30.3231429 0.693,32.6142857 L1.25785714,33.7225714 C1.25785714,33.7225714 2.42485714,36.0137143 4.71642857,34.8467143 L61.4747143,5.92671429 L58.575,0.235714286 L1.81671429,29.1557143"/>
    <path d="M115.382571,29.1557143 C115.382571,29.1557143 117.673714,30.3231429 116.506286,32.6142857 L115.941429,33.7225714 C115.941429,33.7225714 114.774,36.0137143 112.482857,34.8467143 L55.7241429,5.92671429 L58.6238571,0.235714286 L115.382571,29.1557143"/>
    <path d="M81.2755714 1.36842857C81.2755714 1.36842857 76.5612857 1.36842857 76.5612857 6.08271429L76.5612857 15.6402857 87.0574286 15.6402857 87.0574286 6.08271429C87.0574286 6.08271429 87.0574286 1.36842857 82.3431429 1.36842857L81.2755714 1.36842857M102.624 59.9931429L102.624 49.602 94.4618571 49.602 98.3018571 59.9931429 102.624 59.9931429zM16.1652857 59.9931429L20.5547143 59.9931429 20.5547143 49.602 16.1652857 49.602 16.1652857 59.9931429zM95.1668571 57.7992857L91.2694286 57.7992857 90.414 59.9931429 95.967 59.9931429 95.1668571 57.7992857zM94.557 56.0142857L93.1585714 51.9385714 93.129 51.9385714 91.8942857 56.0142857 94.557 56.0142857zM83.3935714 50.7934286C83.5765714 51.2198571 83.6687143 51.7302857 83.6687143 52.3255714 83.6687143 52.6825714 83.619 53.0344286 83.52 53.3815714 83.4205714 53.7287143 83.2744286 54.0432857 83.0811429 54.3261429 82.8874286 54.6085714 82.6495714 54.849 82.3671429 55.0474286 82.0842857 55.2458571 81.7547143 55.3748571 81.3775714 55.434L84.4315714 59.9931429 88.1065714 59.9931429 92.0537143 49.602 82.4104286 49.602C82.4811429 49.6508571 82.5617143 49.6898571 82.6272857 49.7447143 82.9547143 50.0172857 83.2097143 50.367 83.3935714 50.7934286zM80.9091429 53.7608571C81.0925714 53.6267143 81.234 53.451 81.333 53.2328571 81.432 53.0147143 81.4821429 52.7322857 81.4821429 52.3847143 81.4821429 52.038 81.4298571 51.7577143 81.3257143 51.5442857 81.2215714 51.3312857 81.0775714 51.165 80.8941429 51.0462857 80.7107143 50.9271429 80.4951429 50.8452857 80.2474286 50.8007143 79.9992857 50.7561429 79.7314286 50.7338571 79.4442857 50.7338571L79.1464286 50.7338571 79.1464286 54.1101429 79.4292857 54.1101429C79.7267143 54.1101429 80.0018571 54.0857143 80.2547143 54.036 80.5075714 53.9862857 80.7257143 53.8945714 80.9091429 53.7608571zM81.7954286 59.9931429L79.1764286 55.6422857 79.1464286 55.6422857 79.1464286 59.9931429 81.7954286 59.9931429zM76.9598571 49.602L69.6758571 49.602C70.0212857 49.8394286 70.3435714 50.103 70.6234286 50.4141429 71.109 50.9545714 71.4882857 51.5815714 71.7612857 52.2955714 72.0338571 53.0095714 72.1701429 53.7582857 72.1701429 54.5417143 72.1701429 55.3448571 72.0338571 56.106 71.7612857 56.8251429 71.4882857 57.5442857 71.109 58.1712857 70.6234286 58.7065714 70.1374286 59.2422857 69.5524286 59.6687143 68.868 59.9858571 68.862 59.9888571 68.8555714 59.9905714 68.8491429 59.9931429L76.9598571 59.9931429 76.9598571 49.602zM66.6218571 58.305C67.0881429 58.305 67.5218571 58.1837143 67.9234286 57.9407143 68.325 57.6977143 68.6721429 57.3878571 68.9648571 57.0107143 69.2571429 56.634 69.4877143 56.2204286 69.6565714 55.7687143 69.825 55.3178571 69.9094286 54.879 69.9094286 54.4525714 69.9094286 53.9965714 69.8275714 53.55 69.6638571 53.1137143 69.5001429 52.6774286 69.2747143 52.2882857 68.9871429 51.9458571 68.6995714 51.6038571 68.3524286 51.3287143 67.9457143 51.1204286 67.539 50.9121429 67.098 50.808 66.6218571 50.808 66.1461429 50.808 65.7047143 50.9121429 65.298 51.1204286 64.8912857 51.3287143 64.5445714 51.6038571 64.257 51.9458571 63.969 52.2882857 63.7435714 52.6774286 63.5802857 53.1137143 63.4165714 53.55 63.3347143 53.9965714 63.3347143 54.4525714 63.3347143 54.879 63.4187143 55.3178571 63.5875714 55.7687143 63.756 56.2204286 63.9865714 56.634 64.2792857 57.0107143 64.5715714 57.3878571 64.9187143 57.6977143 65.3202857 57.9407143 65.7218571 58.1837143 66.1555714 58.305 66.6218571 58.305zM56.3438571 49.602L56.3438571 55.6572857C56.3438571 56.3417143 56.2667143 56.9764286 56.1132857 57.5614286 55.9594286 58.1464286 55.7164286 58.6547143 55.3842857 59.0858571 55.0915714 59.4655714 54.711 59.7595714 54.2687143 59.9931429L64.3872857 59.9931429C64.3808571 59.9905714 64.3744286 59.9888571 64.3684286 59.9858571 63.6891429 59.6687143 63.1062857 59.2422857 62.6207143 58.7065714 62.1347143 58.1712857 61.7554286 57.5442857 61.4828571 56.8251429 61.2098571 56.106 61.0735714 55.3448571 61.0735714 54.5417143 61.0735714 53.7582857 61.2098571 53.0095714 61.4828571 52.2955714 61.7554286 51.5815714 62.1347143 50.9545714 62.6207143 50.4141429 62.9005714 50.103 63.2215714 49.8394286 63.5657143 49.602L56.3438571 49.602zM54.1568571 49.602L50.2002857 49.602 50.2002857 55.2261429C50.2002857 55.5732857 50.2152857 55.9422857 50.2448571 56.334 50.2748571 56.7261429 50.3567143 57.0852857 50.4904286 57.4127143 50.6241429 57.7397143 50.8225714 58.0127143 51.0852857 58.2308571 51.348 58.449 51.7122857 58.5578571 52.1785714 58.5578571 52.6448571 58.5578571 53.0091429 58.449 53.2718571 58.2308571 53.5345714 58.0127143 53.733 57.7397143 53.8671429 57.4127143 54.0008571 57.0852857 54.0827143 56.7261429 54.1122857 56.334 54.1422857 55.9422857 54.1568571 55.5732857 54.1568571 55.2261429L54.1568571 49.602zM48.0137143 49.602L39.7825714 49.602 43.6221429 59.9931429 50.0884286 59.9931429C49.6461429 59.7595714 49.2655714 59.4655714 48.9732857 59.0858571 48.6407143 58.6547143 48.3977143 58.1464286 48.2442857 57.5614286 48.0904286 56.9764286 48.0137143 56.3417143 48.0137143 55.6572857L48.0137143 49.602zM38.4492857 51.9385714L37.2145714 56.0142857 39.8772857 56.0142857 38.4788571 51.9385714 38.4492857 51.9385714zM40.4871429 57.7992857L36.5897143 57.7992857 35.7342857 59.9931429 41.2872857 59.9931429 40.4871429 57.7992857zM37.374 49.602L28.974 49.602 28.974 59.9931429 33.4268571 59.9931429 37.374 49.602zM22.7412857 53.3665714L26.7874286 53.3665714 26.7874286 49.602 22.7412857 49.602 22.7412857 53.3665714zM22.7412857 59.9931429L26.7874286 59.9931429 26.7874286 55.1515714 22.7412857 55.1515714 22.7412857 59.9931429zM21.2185714 28.491L17.496 28.491 23.2971429 47.079 25.9075714 47.079 29.34 35.1621429 29.3884286 35.1621429 33.0141429 47.079 35.6245714 47.079 41.7887143 28.491 38.0661429 28.491 34.4888571 40.9152857 34.4404286 40.9152857 30.6694286 28.2492857 28.5668571 28.2492857 24.9407143 40.9152857 24.8927143 40.9152857 21.2185714 28.491zM46.3084286 35.67L46.3084286 28.491 42.7551429 28.491 42.7551429 46.7164286 46.3084286 46.7164286 46.3084286 38.5705714 52.8831429 38.5705714 52.8831429 46.7164286 56.4364286 46.7164286 56.4364286 28.491 52.8831429 28.491 52.8831429 35.67 46.3084286 35.67zM68.1111429 39.9724286L63.7842857 39.9724286 65.7904286 33.3492857 65.8388571 33.3492857 68.1111429 39.9724286zM69.102 42.873L70.5042857 46.7164286 74.2988571 46.7164286 67.386 28.0075714 64.6302857 28.0075714 57.5237143 46.7164286 61.2707143 46.7164286 62.769 42.873 69.102 42.873zM78.9398571 31.3915714L79.4232857 31.3915714C79.8904286 31.3915714 80.3254286 31.428 80.7287143 31.5004286 81.1311429 31.5728571 81.4817143 31.7057143 81.78 31.899 82.0778571 32.0927143 82.3118571 32.3627143 82.4811429 32.709 82.6504286 33.0557143 82.7348571 33.5108571 82.7348571 34.0744286 82.7348571 34.6388571 82.6538571 35.0982857 82.4931429 35.4522857 82.332 35.8071429 82.1022857 36.093 81.804 36.3102857 81.5057143 36.528 81.1517143 36.6771429 80.7407143 36.7577143 80.3297143 36.8382857 79.8827143 36.8785714 79.3992857 36.8785714L78.9398571 36.8785714 78.9398571 31.3915714zM82.5655714 39.03C83.178 38.9331429 83.7137143 38.724 84.1731429 38.4012857 84.6321429 38.079 85.0191429 37.6881429 85.3332857 37.2291429 85.6474286 36.7697143 85.8848571 36.2584286 86.0464286 35.694 86.2071429 35.1304286 86.2881429 34.5578571 86.2881429 33.978 86.2881429 33.0111429 86.139 32.1814286 85.8407143 31.4884286 85.5424286 30.7954286 85.128 30.2275714 84.5961429 29.784 84.0642857 29.3412857 83.4235714 29.0147143 82.6744286 28.8051429 81.9248571 28.596 81.099 28.491 80.1968571 28.491L75.3865714 28.491 75.3865714 46.7164286 78.9398571 46.7164286 78.9398571 39.3681429 78.9882857 39.3681429 83.4115714 46.7164286 87.714 46.7164286 82.5655714 39.03zM98.3014286 31.5848571L98.3014286 28.491 88.8745714 28.491 88.8745714 46.7164286 98.3014286 46.7164286 98.3014286 43.6225714 92.4274286 43.6225714 92.4274286 38.6914286 98.0837143 38.6914286 98.0837143 35.5975714 92.4274286 35.5975714 92.4274286 31.5848571 98.3014286 31.5848571 98.3014286 31.5848571z"/>
    <polyline points="40.638 21.677 76.561 21.677 58.599 13.535 40.638 21.677"/>
  </g>
</svg>
